<svg width="439.1199951171875px" height="141.239990234375px" xmlns="http://www.w3.org/2000/svg" viewBox="30.44000244140625 4.3800048828125 439.1199951171875 141.239990234375" style="background: rgba(0, 0, 0, 0) none repeat scroll 0% 0%;" preserveAspectRatio="xMidYMid"><defs><filter id="editing-extrude-glow"><feFlood flood-color="rgba(0%,0%,0%,0)" result="flood-1"></feFlood><feMorphology operator="erode" radius="1" in="SourceAlpha" result="erode"></feMorphology><feComposite operator="in" in="flood-1" in2="erode" result="comp1"></feComposite><feConvolveMatrix order="0,0" divisor="1" in="comp1" result="convolve" kernelMatrix=""></feConvolveMatrix><feOffset dx="0" dy="0" in="convolve" result="extrude"></feOffset><feComposite operator="in" in="flood-1" in2="extrude" result="comp-extrude"></feComposite><feFlood flood-color="rgba(0%,0%,0%,0)" result="flood-2"></feFlood><feComposite operator="in" in="flood-2" in2="SourceAlpha" result="comp2"></feComposite><feMorphology operator="dilate" radius="1" in="comp2" result="dilate"></feMorphology><feOffset dx="0" dy="0" in="dilate" result="offset"></feOffset><feGaussianBlur in="offset" stdDeviation="5.8" result="blur"></feGaussianBlur><feComponentTransfer in="blur" result="shadow"><feFuncA type="linear" slope="0.8" intercept="-0.2"></feFuncA></feComponentTransfer><feMerge><feMergeNode in="shadow"></feMergeNode><feMergeNode in="comp-extrude"></feMergeNode><feMergeNode in="SourceGraphic"></feMergeNode></feMerge></filter></defs><g filter="url(#editing-extrude-glow)"><g transform="translate(96.77999269962311, 107.45000076293945)"><path d="M26.11 0.90L26.11 0.90Q14.02 0.90 7.46-5.25L7.46-5.25L7.46-5.25Q0.90-11.39 0.90-24.90L0.90-24.90L0.90-24.90Q0.90-50.69 25.98-50.69L25.98-50.69L25.98-50.69Q32.06-50.69 37.28-49.22L37.28-49.22L37.28-49.22Q42.50-47.74 45.06-45.95L45.06-45.95L45.06-29.95L29.70-29.95L29.70-34.56L29.70-34.56Q29.70-36.99 28.61-38.14L28.61-38.14L28.61-38.14Q27.52-39.30 25.34-39.30L25.34-39.30L25.34-39.30Q23.17-39.30 22.08-38.14L22.08-38.14L22.08-38.14Q20.99-36.99 20.99-34.56L20.99-34.56L20.99-15.23L20.99-15.23Q20.99-12.80 22.08-11.65L22.08-11.65L22.08-11.65Q23.17-10.50 25.34-10.50L25.34-10.50L25.34-10.50Q27.52-10.50 28.61-11.65L28.61-11.65L28.61-11.65Q29.70-12.80 29.70-15.23L29.70-15.23L29.70-20.42L45.06-20.42L45.06-3.84L45.06-3.84Q42.43-2.05 37.28-0.58L37.28-0.58L37.28-0.58Q32.13 0.90 26.11 0.90L26.11 0.90ZM81.86-10.50L84.67-10.50L84.67 0L67.78 0L67.78-4.35L67.78-4.35Q66.37-2.30 63.84-0.70L63.84-0.70L63.84-0.70Q61.31 0.90 57.66 0.90L57.66 0.90L57.66 0.90Q52.86 0.90 50.11-1.66L50.11-1.66L50.11-1.66Q47.36-4.22 47.36-8.90L47.36-8.90L47.36-8.90Q47.36-20.99 67.90-21.31L67.90-21.31L67.90-21.31Q67.71-23.49 66.24-24.29L66.24-24.29L66.24-24.29Q64.77-25.09 61.25-25.09L61.25-25.09L61.25-25.09Q58.37-25.09 55.07-24.48L55.07-24.48L55.07-24.48Q51.78-23.87 49.02-22.85L49.02-22.85L49.02-34.62L49.02-34.62Q52.42-35.46 56.38-35.97L56.38-35.97L56.38-35.97Q60.35-36.48 64.13-36.48L64.13-36.48L64.13-36.48Q73.66-36.48 77.76-33.02L77.76-33.02L77.76-33.02Q81.86-29.57 81.86-22.34L81.86-22.34L81.86-10.50ZM67.78-14.59L67.78-14.98L67.78-14.98Q64.90-14.98 63.33-14.21L63.33-14.21L63.33-14.21Q61.76-13.44 61.76-11.65L61.76-11.65L61.76-11.65Q61.76-10.56 62.43-9.89L62.43-9.89L62.43-9.89Q63.10-9.22 64.32-9.22L64.32-9.22L64.32-9.22Q65.98-9.22 66.88-10.62L66.88-10.62L66.88-10.62Q67.78-12.03 67.78-14.59L67.78-14.59ZM86.46 14.21L86.46 3.71L89.28 3.71L89.28-25.09L86.46-25.09L86.46-35.58L104-35.58L104-31.23L104-31.23Q105.60-33.28 108.13-34.88L108.13-34.88L108.13-34.88Q110.66-36.48 113.92-36.48L113.92-36.48L113.92-36.48Q120.45-36.48 123.74-31.62L123.74-31.62L123.74-31.62Q127.04-26.75 127.04-17.79L127.04-17.79L127.04-17.79Q127.04-8.83 123.74-3.97L123.74-3.97L123.74-3.97Q120.45 0.90 113.92 0.90L113.92 0.90L113.92 0.90Q110.66 0.90 108.13-0.70L108.13-0.70L108.13-0.70Q105.60-2.30 104-4.35L104-4.35L104 3.71L108.42 3.71L108.42 14.21L86.46 14.21ZM107.71-10.50L107.71-10.50Q109.57-10.50 110.50-11.49L110.50-11.49L110.50-11.49Q111.42-12.48 111.42-14.59L111.42-14.59L111.42-20.99L111.42-20.99Q111.42-23.10 110.50-24.10L110.50-24.10L110.50-24.10Q109.57-25.09 107.71-25.09L107.71-25.09L107.71-25.09Q105.86-25.09 104.93-24.10L104.93-24.10L104.93-24.10Q104-23.10 104-20.99L104-20.99L104-14.59L104-14.59Q104-12.48 104.93-11.49L104.93-11.49L104.93-11.49Q105.86-10.50 107.71-10.50L107.71-10.50ZM163.33-10.50L166.14-10.50L166.14 0L149.25 0L149.25-4.35L149.25-4.35Q147.84-2.30 145.31-0.70L145.31-0.70L145.31-0.70Q142.78 0.90 139.14 0.90L139.14 0.90L139.14 0.90Q134.34 0.90 131.58-1.66L131.58-1.66L131.58-1.66Q128.83-4.22 128.83-8.90L128.83-8.90L128.83-8.90Q128.83-20.99 149.38-21.31L149.38-21.31L149.38-21.31Q149.18-23.49 147.71-24.29L147.71-24.29L147.71-24.29Q146.24-25.09 142.72-25.09L142.72-25.09L142.72-25.09Q139.84-25.09 136.54-24.48L136.54-24.48L136.54-24.48Q133.25-23.87 130.50-22.85L130.50-22.85L130.50-34.62L130.50-34.62Q133.89-35.46 137.86-35.97L137.86-35.97L137.86-35.97Q141.82-36.48 145.60-36.48L145.60-36.48L145.60-36.48Q155.14-36.48 159.23-33.02L159.23-33.02L159.23-33.02Q163.33-29.57 163.33-22.34L163.33-22.34L163.33-10.50ZM149.25-14.59L149.25-14.98L149.25-14.98Q146.37-14.98 144.80-14.21L144.80-14.21L144.80-14.21Q143.23-13.44 143.23-11.65L143.23-11.65L143.23-11.65Q143.23-10.56 143.90-9.89L143.90-9.89L143.90-9.89Q144.58-9.22 145.79-9.22L145.79-9.22L145.79-9.22Q147.46-9.22 148.35-10.62L148.35-10.62L148.35-10.62Q149.25-12.03 149.25-14.59L149.25-14.59ZM207.49-10.50L210.30-10.50L210.30 0L192.77 0L192.77-4.99L192.77-4.99Q188.16 0.90 181.25 0.90L181.25 0.90L181.25 0.90Q175.94 0.90 173.28-2.43L173.28-2.43L173.28-2.43Q170.62-5.76 170.62-11.58L170.62-11.58L170.62-25.09L167.81-25.09L167.81-35.58L185.34-35.58L185.34-14.59L185.34-14.59Q185.34-12.48 186.27-11.49L186.27-11.49L186.27-11.49Q187.20-10.50 189.06-10.50L189.06-10.50L189.06-10.50Q190.91-10.50 191.84-11.49L191.84-11.49L191.84-11.49Q192.77-12.48 192.77-14.59L192.77-14.59L192.77-25.09L189.31-25.09L189.31-35.58L207.49-35.58L207.49-10.50ZM239.42-36.48L239.42-36.48Q240.70-36.48 241.86-36.22L241.86-36.22L241.86-36.22Q243.01-35.97 243.78-35.58L243.78-35.58L243.78-23.36L243.78-23.36Q241.15-24.45 238.14-24.45L238.14-24.45L238.14-24.45Q234.11-24.45 231.94-22.34L231.94-22.34L231.94-22.34Q229.76-20.22 229.76-16.06L229.76-16.06L229.76-10.50L235.52-10.50L235.52 0L212.22 0L212.22-10.50L215.04-10.50L215.04-25.09L212.22-25.09L212.22-35.58L229.76-35.58L229.76-30.91L229.76-30.91Q231.55-33.60 233.86-35.04L233.86-35.04L233.86-35.04Q236.16-36.48 239.42-36.48L239.42-36.48ZM280.32-10.50L283.14-10.50L283.14 0L266.24 0L266.24-4.35L266.24-4.35Q264.83-2.30 262.30-0.70L262.30-0.70L262.30-0.70Q259.78 0.90 256.13 0.90L256.13 0.90L256.13 0.90Q251.33 0.90 248.58-1.66L248.58-1.66L248.58-1.66Q245.82-4.22 245.82-8.90L245.82-8.90L245.82-8.90Q245.82-20.99 266.37-21.31L266.37-21.31L266.37-21.31Q266.18-23.49 264.70-24.29L264.70-24.29L264.70-24.29Q263.23-25.09 259.71-25.09L259.71-25.09L259.71-25.09Q256.83-25.09 253.54-24.48L253.54-24.48L253.54-24.48Q250.24-23.87 247.49-22.85L247.49-22.85L247.49-34.62L247.49-34.62Q250.88-35.46 254.85-35.97L254.85-35.97L254.85-35.97Q258.82-36.48 262.59-36.48L262.59-36.48L262.59-36.48Q272.13-36.48 276.22-33.02L276.22-33.02L276.22-33.02Q280.32-29.57 280.32-22.34L280.32-22.34L280.32-10.50ZM266.24-14.59L266.24-14.98L266.24-14.98Q263.36-14.98 261.79-14.21L261.79-14.21L261.79-14.21Q260.22-13.44 260.22-11.65L260.22-11.65L260.22-11.65Q260.22-10.56 260.90-9.89L260.90-9.89L260.90-9.89Q261.57-9.22 262.78-9.22L262.78-9.22L262.78-9.22Q264.45-9.22 265.34-10.62L265.34-10.62L265.34-10.62Q266.24-12.03 266.24-14.59L266.24-14.59ZM305.54 0.06L285.18 0.06L285.18-10.50L288.00-10.50L288.00-39.30L285.18-39.30L285.18-49.79L302.72-49.79L302.72-10.50L305.54-10.50L305.54 0.06Z" fill="#ffffff"></path></g></g><style>text {
  font-size: 64px;
  font-family: Arial Black;
  dominant-baseline: central;
  text-anchor: middle;
}</style></svg>